<svg version="1.1" id="Layer_1" xmlns="http://www.w3.org/2000/svg" xmlns:xlink="http://www.w3.org/1999/xlink" x="0px" y="0px"
	 width="100%" viewBox="0 0 1850 1855" enable-background="new 0 0 1850 1855" xml:space="preserve">
<path fill="#FFFFFF" opacity="1.000000" stroke="none" 
	d="
M1072.000000,1856.000000 
	C714.666687,1856.000000 357.833344,1856.000000 1.000000,1856.000000 
	C1.000000,1237.666626 1.000000,619.333313 1.000000,1.000000 
	C617.666687,1.000000 1234.333374,1.000000 1851.000000,1.000000 
	C1851.000000,619.333313 1851.000000,1237.666626 1851.000000,1856.000000 
	C1591.500000,1856.000000 1332.000000,1856.000000 1072.000000,1856.000000 
M934.917603,1834.006714 
	C941.649170,1834.004395 948.382385,1834.088867 955.111572,1833.960327 
	C958.086609,1833.903564 961.053406,1833.414673 964.949951,1833.010986 
	C975.123840,1832.341064 985.304871,1831.762695 995.469788,1830.976807 
	C1007.069641,1830.079834 1018.708801,1829.405884 1030.233398,1827.893066 
	C1044.711426,1825.992676 1059.139404,1823.602051 1073.500610,1820.945679 
	C1092.246460,1817.478271 1111.059570,1814.174072 1129.567993,1809.667725 
	C1160.640747,1802.102295 1191.520020,1793.653198 1221.356079,1781.987305 
	C1247.807739,1771.644531 1274.320679,1761.364014 1300.242676,1749.792969 
	C1319.355591,1741.261597 1337.657837,1730.878296 1356.146851,1720.994019 
	C1384.343140,1705.920288 1411.424316,1688.951172 1437.220581,1670.113647 
	C1458.736084,1654.402222 1479.682129,1637.869629 1500.332764,1621.029175 
	C1515.338745,1608.792358 1529.926392,1595.950562 1543.833374,1582.483032 
	C1558.934937,1567.858765 1573.257324,1552.404541 1587.493896,1536.920776 
	C1598.355103,1525.108032 1608.939697,1512.994385 1618.949463,1500.457275 
	C1632.008301,1484.101074 1644.723267,1467.443970 1656.966431,1450.469238 
	C1678.115356,1421.147217 1697.254272,1390.500122 1714.035034,1358.478882 
	C1724.878174,1337.787964 1735.533936,1316.915527 1744.711304,1295.456177 
	C1755.934937,1269.212158 1766.091919,1242.470581 1775.631836,1215.561768 
	C1782.656250,1195.748657 1788.393311,1175.441406 1793.874146,1155.130371 
	C1798.238403,1138.957153 1801.583496,1122.493530 1804.941284,1106.068848 
	C1807.634644,1092.894043 1809.957275,1079.626709 1811.908081,1066.321777 
	C1813.659546,1054.375732 1814.694580,1042.324341 1816.019409,1030.316528 
	C1817.362915,1018.137512 1819.031616,1005.980225 1819.897949,993.766724 
	C1820.741089,981.883362 1820.748047,969.940613 1821.875122,957.597595 
	C1821.916626,943.196655 1821.974365,928.795776 1821.957764,914.394897 
	C1821.956787,913.565002 1821.351318,912.735779 1821.001587,911.997314 
	C1821.001587,911.997314 1821.093140,912.021545 1821.006714,911.082397 
	C1821.004517,904.350830 1821.088867,897.617615 1820.960083,890.888428 
	C1820.903320,887.913391 1820.414673,884.946594 1820.010986,881.051147 
	C1818.679077,864.537720 1817.486206,848.011475 1815.968994,831.515076 
	C1814.862915,819.487915 1813.755615,807.433044 1811.882690,795.510925 
	C1809.321411,779.208984 1806.480957,762.922974 1802.948608,746.808044 
	C1797.914917,723.844055 1792.908447,700.823975 1786.471069,678.232239 
	C1780.275269,656.488770 1772.882324,635.030518 1764.903198,613.866272 
	C1756.187866,590.748901 1746.822388,567.826782 1736.567871,545.354614 
	C1727.877075,526.309570 1717.841797,507.849213 1707.814209,489.450226 
	C1693.525269,463.232513 1678.136230,437.638428 1660.249512,413.684052 
	C1642.384521,389.758606 1624.469116,365.850220 1605.824951,342.534760 
	C1594.749146,328.683838 1582.502686,315.726624 1570.261963,302.862885 
	C1560.321167,292.415924 1549.775757,282.522400 1539.189331,272.717285 
	C1526.279663,260.760742 1513.246460,248.920792 1499.895508,237.462753 
	C1487.400879,226.739609 1474.864624,215.970352 1461.553345,206.315094 
	C1440.637817,191.144135 1419.393066,176.366196 1397.651855,162.413055 
	C1379.642700,150.855148 1361.075195,140.037155 1342.100830,130.146713 
	C1319.548828,118.391487 1296.585449,107.315376 1273.264893,97.176514 
	C1251.353638,87.650307 1229.021851,78.900253 1206.367554,71.326698 
	C1182.312866,63.285004 1157.720459,56.813267 1133.242798,50.093342 
	C1122.526001,47.151215 1111.544067,45.125751 1100.621582,42.996937 
	C1090.933838,41.108761 1081.171509,39.593876 1071.424194,38.025181 
	C1062.603271,36.605602 1053.777588,35.187260 1044.918701,34.041275 
	C1035.687866,32.847206 1026.415039,31.977131 1017.160217,30.969946 
	C1004.979797,29.644379 992.822998,27.995144 980.611023,27.098139 
	C969.726501,26.298624 958.779785,26.357525 947.863342,25.959938 
	C946.843262,25.922785 945.843567,25.326891 944.607178,24.147161 
	C924.409058,24.098665 904.210999,24.041592 884.012878,24.038752 
	C883.333984,24.038656 882.654907,24.585873 881.047852,24.989109 
	C864.950012,25.992033 848.843811,26.879778 832.757141,28.037548 
	C821.648499,28.837040 810.521301,29.662807 799.485291,31.109158 
	C787.423889,32.689888 775.434082,34.866386 763.456238,37.022953 
	C747.053955,39.976116 730.540100,42.515556 714.345215,46.371437 
	C681.185059,54.266624 648.199524,62.954670 616.259338,75.025459 
	C593.290039,83.705994 570.316223,92.447731 547.770203,102.151527 
	C530.336792,109.654831 513.465942,118.500053 496.530060,127.112640 
	C484.610443,133.174271 472.658539,139.296967 461.327240,146.364273 
	C439.698151,159.854263 418.011322,173.348938 397.257355,188.118820 
	C374.383606,204.397324 352.227417,221.733414 330.345276,239.338013 
	C316.649841,250.356232 303.751007,262.420532 291.024506,274.570374 
	C279.867004,285.222351 269.206970,296.426270 258.762665,307.786774 
	C245.082428,322.667084 231.642700,337.779510 218.459625,353.101959 
	C209.642273,363.350189 200.932449,373.767456 193.091843,384.763153 
	C178.369751,405.409485 163.814606,426.210571 150.129700,447.549927 
	C138.396393,465.846039 127.264442,484.610382 117.161827,503.847900 
	C105.710327,525.653931 94.944557,547.894165 85.271851,570.539856 
	C75.066750,594.432007 65.851364,618.801636 57.422462,643.380676 
	C50.339989,664.033508 44.703461,685.204346 39.003792,706.301758 
	C34.845211,721.694824 31.324797,737.278931 28.078016,752.893860 
	C25.306740,766.221924 23.061338,779.675781 21.083511,793.147400 
	C19.353247,804.932800 18.298143,816.818176 16.983397,828.663635 
	C15.631346,840.845154 13.968785,853.006531 13.102162,865.223511 
	C12.258978,877.110107 12.252049,889.056091 11.124881,901.402344 
	C11.083360,921.431885 11.031091,941.461426 11.037661,961.490967 
	C11.037937,962.335388 11.585407,963.179688 11.989110,964.952148 
	C12.992039,981.050903 13.879765,997.157898 15.037571,1013.245483 
	C15.837032,1024.354004 16.662895,1035.481323 18.109266,1046.517334 
	C19.690014,1058.578613 21.866417,1070.568359 24.023106,1082.546021 
	C26.976456,1098.948242 29.516979,1115.461792 33.372246,1131.656738 
	C41.266167,1164.817139 49.990852,1197.788696 62.017735,1229.745483 
	C69.705681,1250.173340 77.371605,1270.642334 86.077583,1290.644531 
	C94.549271,1310.108521 104.130035,1329.102783 113.613953,1348.108643 
	C119.797905,1360.501343 126.082512,1372.916382 133.376389,1384.666870 
	C146.819382,1406.323853 160.349060,1427.989746 175.118881,1448.743530 
	C191.397339,1471.617432 208.733810,1493.773315 226.338486,1515.655273 
	C237.356781,1529.350708 249.420929,1542.249512 261.570770,1554.975952 
	C272.222748,1566.133301 283.426636,1576.793335 294.787109,1587.237549 
	C309.667480,1600.917847 324.779816,1614.357788 340.102356,1627.540894 
	C350.350494,1636.358154 360.767792,1645.067627 371.763367,1652.908325 
	C392.409821,1667.630615 413.237030,1682.142822 434.544342,1695.881226 
	C452.137665,1707.224609 470.137085,1718.079956 488.672180,1727.784912 
	C511.206879,1739.584106 534.167297,1750.707764 557.542664,1760.725586 
	C581.421387,1770.958984 605.802734,1780.149414 630.381836,1788.578125 
	C651.034668,1795.660400 672.205566,1801.296753 693.302917,1806.996338 
	C708.695923,1811.154663 724.279907,1814.675293 739.894775,1817.922119 
	C753.222839,1820.693237 766.676575,1822.938843 780.148193,1824.916748 
	C791.933533,1826.646973 803.818787,1827.701904 815.664124,1829.016724 
	C827.845581,1830.368774 840.006897,1832.031128 852.223755,1832.897827 
	C864.110291,1833.740845 876.056213,1833.747925 888.402405,1834.875122 
	C902.803345,1834.916626 917.204224,1834.974243 931.605103,1834.957764 
	C932.435059,1834.956787 933.264282,1834.351440 934.002686,1834.001587 
	C934.002686,1834.001587 933.978455,1834.093140 934.917603,1834.006714 
z"/>
<path fill="#008000" opacity="1.000000" stroke="none" 
	d="
M944.834412,24.990414 
	C945.843567,25.326891 946.843262,25.922785 947.863342,25.959938 
	C958.779785,26.357525 969.726501,26.298624 980.611023,27.098139 
	C992.822998,27.995144 1004.979797,29.644379 1017.160217,30.969946 
	C1026.415039,31.977131 1035.687866,32.847206 1044.918701,34.041275 
	C1053.777588,35.187260 1062.603271,36.605602 1071.424194,38.025181 
	C1081.171509,39.593876 1090.933838,41.108761 1100.621582,42.996937 
	C1111.544067,45.125751 1122.526001,47.151215 1133.242798,50.093342 
	C1157.720459,56.813267 1182.312866,63.285004 1206.367554,71.326698 
	C1229.021851,78.900253 1251.353638,87.650307 1273.264893,97.176514 
	C1296.585449,107.315376 1319.548828,118.391487 1342.100830,130.146713 
	C1361.075195,140.037155 1379.642700,150.855148 1397.651855,162.413055 
	C1419.393066,176.366196 1440.637817,191.144135 1461.553345,206.315094 
	C1474.864624,215.970352 1487.400879,226.739609 1499.895508,237.462753 
	C1513.246460,248.920792 1526.279663,260.760742 1539.189331,272.717285 
	C1549.775757,282.522400 1560.321167,292.415924 1570.261963,302.862885 
	C1582.502686,315.726624 1594.749146,328.683838 1605.824951,342.534760 
	C1624.469116,365.850220 1642.384521,389.758606 1660.249512,413.684052 
	C1678.136230,437.638428 1693.525269,463.232513 1707.814209,489.450226 
	C1717.841797,507.849213 1727.877075,526.309570 1736.567871,545.354614 
	C1746.822388,567.826782 1756.187866,590.748901 1764.903198,613.866272 
	C1772.882324,635.030518 1780.275269,656.488770 1786.471069,678.232239 
	C1792.908447,700.823975 1797.914917,723.844055 1802.948608,746.808044 
	C1806.480957,762.922974 1809.321411,779.208984 1811.882690,795.510925 
	C1813.755615,807.433044 1814.862915,819.487915 1815.968994,831.515076 
	C1817.486206,848.011475 1818.679077,864.537720 1820.020508,881.979858 
	C1820.020020,891.114502 1819.955566,899.321045 1820.049561,907.525757 
	C1820.066895,909.028137 1820.728760,910.523132 1821.093140,912.021545 
	C1821.093140,912.021545 1821.001587,911.997314 1821.005371,912.426392 
	C1821.046875,927.911682 1821.084473,942.967834 1821.122070,958.023987 
	C1820.748047,969.940613 1820.741089,981.883362 1819.897949,993.766724 
	C1819.031616,1005.980225 1817.362915,1018.137512 1816.019409,1030.316528 
	C1814.694580,1042.324341 1813.659546,1054.375732 1811.908081,1066.321777 
	C1809.957275,1079.626709 1807.634644,1092.894043 1804.941284,1106.068848 
	C1801.583496,1122.493530 1798.238403,1138.957153 1793.874146,1155.130371 
	C1788.393311,1175.441406 1782.656250,1195.748657 1775.631836,1215.561768 
	C1766.091919,1242.470581 1755.934937,1269.212158 1744.711304,1295.456177 
	C1735.533936,1316.915527 1724.878174,1337.787964 1714.035034,1358.478882 
	C1697.254272,1390.500122 1678.115356,1421.147217 1656.966431,1450.469238 
	C1644.723267,1467.443970 1632.008301,1484.101074 1618.949463,1500.457275 
	C1608.939697,1512.994385 1598.355103,1525.108032 1587.493896,1536.920776 
	C1573.257324,1552.404541 1558.934937,1567.858765 1543.833374,1582.483032 
	C1529.926392,1595.950562 1515.338745,1608.792358 1500.332764,1621.029175 
	C1479.682129,1637.869629 1458.736084,1654.402222 1437.220581,1670.113647 
	C1411.424316,1688.951172 1384.343140,1705.920288 1356.146851,1720.994019 
	C1337.657837,1730.878296 1319.355591,1741.261597 1300.242676,1749.792969 
	C1274.320679,1761.364014 1247.807739,1771.644531 1221.356079,1781.987305 
	C1191.520020,1793.653198 1160.640747,1802.102295 1129.567993,1809.667725 
	C1111.059570,1814.174072 1092.246460,1817.478271 1073.500610,1820.945679 
	C1059.139404,1823.602051 1044.711426,1825.992676 1030.233398,1827.893066 
	C1018.708801,1829.405884 1007.069641,1830.079834 995.469788,1830.976807 
	C985.304871,1831.762695 975.123840,1832.341064 964.020630,1833.020508 
	C954.885498,1833.020020 946.678955,1832.955566 938.474243,1833.049561 
	C936.971863,1833.066772 935.476868,1833.728760 933.978455,1834.093140 
	C933.978455,1834.093140 934.002686,1834.001587 933.573608,1834.005371 
	C918.088318,1834.046753 903.032166,1834.084473 887.976013,1834.122070 
	C876.056213,1833.747925 864.110291,1833.740845 852.223755,1832.897827 
	C840.006897,1832.031128 827.845581,1830.368774 815.664124,1829.016724 
	C803.818787,1827.701904 791.933533,1826.646973 780.148193,1824.916748 
	C766.676575,1822.938843 753.222839,1820.693237 739.894775,1817.922119 
	C724.279907,1814.675293 708.695923,1811.154663 693.302917,1806.996338 
	C672.205566,1801.296753 651.034668,1795.660400 630.381836,1788.578125 
	C605.802734,1780.149414 581.421387,1770.958984 557.542664,1760.725586 
	C534.167297,1750.707764 511.206879,1739.584106 488.672180,1727.784912 
	C470.137085,1718.079956 452.137665,1707.224609 434.544342,1695.881226 
	C413.237030,1682.142822 392.409821,1667.630615 371.763367,1652.908325 
	C360.767792,1645.067627 350.350494,1636.358154 340.102356,1627.540894 
	C324.779816,1614.357788 309.667480,1600.917847 294.787109,1587.237549 
	C283.426636,1576.793335 272.222748,1566.133301 261.570770,1554.975952 
	C249.420929,1542.249512 237.356781,1529.350708 226.338486,1515.655273 
	C208.733810,1493.773315 191.397339,1471.617432 175.118881,1448.743530 
	C160.349060,1427.989746 146.819382,1406.323853 133.376389,1384.666870 
	C126.082512,1372.916382 119.797905,1360.501343 113.613953,1348.108643 
	C104.130035,1329.102783 94.549271,1310.108521 86.077583,1290.644531 
	C77.371605,1270.642334 69.705681,1250.173340 62.017735,1229.745483 
	C49.990852,1197.788696 41.266167,1164.817139 33.372246,1131.656738 
	C29.516979,1115.461792 26.976456,1098.948242 24.023106,1082.546021 
	C21.866417,1070.568359 19.690014,1058.578613 18.109266,1046.517334 
	C16.662895,1035.481323 15.837032,1024.354004 15.037571,1013.245483 
	C13.879765,997.157898 12.992039,981.050903 11.979554,964.021851 
	C11.939310,942.386292 11.908622,921.681152 11.877934,900.975952 
	C12.252049,889.056091 12.258978,877.110107 13.102162,865.223511 
	C13.968785,853.006531 15.631346,840.845154 16.983397,828.663635 
	C18.298143,816.818176 19.353247,804.932800 21.083511,793.147400 
	C23.061338,779.675781 25.306740,766.221924 28.078016,752.893860 
	C31.324797,737.278931 34.845211,721.694824 39.003792,706.301758 
	C44.703461,685.204346 50.339989,664.033508 57.422462,643.380676 
	C65.851364,618.801636 75.066750,594.432007 85.271851,570.539856 
	C94.944557,547.894165 105.710327,525.653931 117.161827,503.847900 
	C127.264442,484.610382 138.396393,465.846039 150.129700,447.549927 
	C163.814606,426.210571 178.369751,405.409485 193.091843,384.763153 
	C200.932449,373.767456 209.642273,363.350189 218.459625,353.101959 
	C231.642700,337.779510 245.082428,322.667084 258.762665,307.786774 
	C269.206970,296.426270 279.867004,285.222351 291.024506,274.570374 
	C303.751007,262.420532 316.649841,250.356232 330.345276,239.338013 
	C352.227417,221.733414 374.383606,204.397324 397.257355,188.118820 
	C418.011322,173.348938 439.698151,159.854263 461.327240,146.364273 
	C472.658539,139.296967 484.610443,133.174271 496.530060,127.112640 
	C513.465942,118.500053 530.336792,109.654831 547.770203,102.151527 
	C570.316223,92.447731 593.290039,83.705994 616.259338,75.025459 
	C648.199524,62.954670 681.185059,54.266624 714.345215,46.371437 
	C730.540100,42.515556 747.053955,39.976116 763.456238,37.022953 
	C775.434082,34.866386 787.423889,32.689888 799.485291,31.109158 
	C810.521301,29.662807 821.648499,28.837040 832.757141,28.037548 
	C848.843811,26.879778 864.950012,25.992033 881.978149,24.979553 
	C903.550476,24.976799 924.192444,24.983601 944.834412,24.990414 
M672.500000,1340.000000 
	C723.905823,1340.000000 775.311646,1340.000000 827.234497,1340.000000 
	C827.234497,1139.548706 827.234497,939.979797 827.234497,740.322510 
	C893.663757,740.322510 959.570496,740.322510 1026.175171,740.322510 
	C1026.175171,940.331055 1026.175171,1140.018311 1026.175171,1339.618164 
	C1093.448120,1339.618164 1160.021606,1339.618164 1227.115479,1339.618164 
	C1227.115479,1139.668091 1227.115479,940.099182 1227.115479,739.825195 
	C1293.994751,739.825195 1360.355835,739.825195 1426.614624,739.825195 
	C1426.614624,672.544800 1426.614624,605.971313 1426.614624,539.315613 
	C1092.999146,539.315613 759.769043,539.315613 426.437347,539.315613 
	C426.437347,606.323303 426.437347,673.014465 426.437347,740.233521 
	C493.114716,740.233521 559.356445,740.233521 626.116211,740.233521 
	C626.116211,940.331116 626.116211,1139.900024 626.116211,1340.000000 
	C641.588196,1340.000000 656.544128,1340.000000 672.500000,1340.000000 
z"/>
<path fill="#000000" opacity="1.000000" stroke="none" 
	d="
M944.720825,24.568783 
	C924.192444,24.983601 903.550476,24.976799 882.442261,24.923986 
	C882.654907,24.585873 883.333984,24.038656 884.012878,24.038752 
	C904.210999,24.041592 924.409058,24.098665 944.720825,24.568783 
z"/>
<path fill="#000000" opacity="1.000000" stroke="none" 
	d="
M11.501408,901.189148 
	C11.908622,921.681152 11.939310,942.386292 11.923979,963.557739 
	C11.585407,963.179688 11.037937,962.335388 11.037661,961.490967 
	C11.031091,941.461426 11.083360,921.431885 11.501408,901.189148 
z"/>
<path fill="#000000" opacity="1.000000" stroke="none" 
	d="
M1821.498535,957.810791 
	C1821.084473,942.967834 1821.046875,927.911682 1821.018311,912.380859 
	C1821.351318,912.735779 1821.956787,913.565002 1821.957764,914.394897 
	C1821.974365,928.795776 1821.916626,943.196655 1821.498535,957.810791 
z"/>
<path fill="#000000" opacity="1.000000" stroke="none" 
	d="
M888.189209,1834.498535 
	C903.032166,1834.084473 918.088318,1834.046753 933.619141,1834.018311 
	C933.264282,1834.351440 932.435059,1834.956787 931.605103,1834.957764 
	C917.204224,1834.974243 902.803345,1834.916626 888.189209,1834.498535 
z"/>
<path fill="#000000" opacity="1.000000" stroke="none" 
	d="
M1821.049927,911.552002 
	C1820.728760,910.523132 1820.066895,909.028137 1820.049561,907.525757 
	C1819.955566,899.321045 1820.020020,891.114502 1820.075928,882.442322 
	C1820.414673,884.946594 1820.903320,887.913391 1820.960083,890.888428 
	C1821.088867,897.617615 1821.004517,904.350830 1821.049927,911.552002 
z"/>
<path fill="#000000" opacity="1.000000" stroke="none" 
	d="
M934.447998,1834.049927 
	C935.476868,1833.728760 936.971863,1833.066772 938.474243,1833.049561 
	C946.678955,1832.955566 954.885498,1833.020020 963.557678,1833.076050 
	C961.053406,1833.414673 958.086609,1833.903564 955.111572,1833.960327 
	C948.382385,1834.088867 941.649170,1834.004395 934.447998,1834.049927 
z"/>
<path fill="#000000" opacity="1.000000" stroke="none" 
	d="
M672.000000,1340.000000 
	C656.544128,1340.000000 641.588196,1340.000000 626.116211,1340.000000 
	C626.116211,1139.900024 626.116211,940.331116 626.116211,740.233521 
	C559.356445,740.233521 493.114716,740.233521 426.437347,740.233521 
	C426.437347,673.014465 426.437347,606.323303 426.437347,539.315613 
	C759.769043,539.315613 1092.999146,539.315613 1426.614624,539.315613 
	C1426.614624,605.971313 1426.614624,672.544800 1426.614624,739.825195 
	C1360.355835,739.825195 1293.994751,739.825195 1227.115479,739.825195 
	C1227.115479,940.099182 1227.115479,1139.668091 1227.115479,1339.618164 
	C1160.021606,1339.618164 1093.448120,1339.618164 1026.175171,1339.618164 
	C1026.175171,1140.018311 1026.175171,940.331055 1026.175171,740.322510 
	C959.570496,740.322510 893.663757,740.322510 827.234497,740.322510 
	C827.234497,939.979797 827.234497,1139.548706 827.234497,1340.000000 
	C775.311646,1340.000000 723.905823,1340.000000 672.000000,1340.000000 
M1226.000000,817.500000 
	C1226.000000,791.405823 1226.000000,765.311584 1226.000000,738.822510 
	C1292.975830,738.822510 1359.380615,738.822510 1425.709473,738.822510 
	C1425.709473,672.352478 1425.709473,606.281860 1425.709473,540.284424 
	C1092.687378,540.284424 759.955933,540.284424 427.286713,540.284424 
	C427.286713,606.639771 427.286713,672.710327 427.286713,739.178955 
	C493.977295,739.178955 560.382019,739.178955 627.179321,739.178955 
	C627.179321,939.312256 627.179321,1139.046753 627.179321,1338.710693 
	C693.645081,1338.710693 759.715698,1338.710693 826.180054,1338.710693 
	C826.180054,1138.687012 826.180054,938.952454 826.180054,739.289673 
	C893.312439,739.289673 960.049683,739.289673 1027.180664,739.289673 
	C1027.180664,939.313599 1027.180664,1139.048218 1027.180664,1338.709961 
	C1093.646484,1338.709961 1159.717041,1338.709961 1226.000000,1338.709961 
	C1226.000000,1165.113281 1226.000000,991.806641 1226.000000,817.500000 
z"/>
<path fill="#FFFFFF" opacity="1.000000" stroke="none" 
	d="
M1226.000000,818.000000 
	C1226.000000,991.806641 1226.000000,1165.113281 1226.000000,1338.709961 
	C1159.717041,1338.709961 1093.646484,1338.709961 1027.180664,1338.709961 
	C1027.180664,1139.048218 1027.180664,939.313599 1027.180664,739.289673 
	C960.049683,739.289673 893.312439,739.289673 826.180054,739.289673 
	C826.180054,938.952454 826.180054,1138.687012 826.180054,1338.710693 
	C759.715698,1338.710693 693.645081,1338.710693 627.179321,1338.710693 
	C627.179321,1139.046753 627.179321,939.312256 627.179321,739.178955 
	C560.382019,739.178955 493.977295,739.178955 427.286713,739.178955 
	C427.286713,672.710327 427.286713,606.639771 427.286713,540.284424 
	C759.955933,540.284424 1092.687378,540.284424 1425.709473,540.284424 
	C1425.709473,606.281860 1425.709473,672.352478 1425.709473,738.822510 
	C1359.380615,738.822510 1292.975830,738.822510 1226.000000,738.822510 
	C1226.000000,765.311584 1226.000000,791.405823 1226.000000,818.000000 
z"/>
</svg>