<svg version="1.1" id="Layer_1" xmlns="http://www.w3.org/2000/svg" xmlns:xlink="http://www.w3.org/1999/xlink" x="0px" y="0px"
	 width="100%" viewBox="0 0 1024 1024" enable-background="new 0 0 1024 1024" xml:space="preserve">
<path fill="#000000" opacity="1.000000" stroke="none" 
	d="
M343.717346,470.464813 
	C347.593903,486.110321 349.927704,501.505890 349.314972,517.283813 
	C348.789734,530.809143 346.331177,544.053223 343.792877,557.278809 
	C341.599060,568.709473 341.387207,580.048767 343.926422,591.434631 
	C347.552551,607.694153 345.860107,623.848389 342.901978,639.984619 
	C341.342499,648.491394 339.810913,657.008789 338.554443,665.563599 
	C337.713745,671.287476 339.564880,676.472778 343.212311,680.885620 
	C346.061401,684.332642 350.311859,686.301819 352.939087,690.140564 
	C354.070740,691.794006 356.698730,691.004761 358.666107,691.005066 
	C392.995056,691.010315 427.324097,690.948242 461.652679,691.052490 
	C464.130188,691.059998 468.591766,689.385132 468.606415,693.271057 
	C468.618073,696.368774 464.259644,695.138184 461.836182,695.144348 
	C419.008606,695.253662 376.180756,695.263672 333.352966,695.277161 
	C331.032379,695.277893 328.695526,695.467896 326.417084,694.697998 
	C323.513458,693.716919 321.868439,691.674866 322.120148,688.705200 
	C323.771606,669.220520 322.685913,650.005188 317.628113,631.013123 
	C314.245056,618.309509 315.409637,605.589111 319.054535,593.067139 
	C319.539368,591.401611 319.820312,589.878906 319.062866,588.235107 
	C313.645233,576.478210 312.982544,563.783020 311.883850,551.193298 
	C310.857330,539.431091 309.793152,527.664062 309.190460,515.876343 
	C308.904388,510.281464 309.654633,504.633514 309.939728,498.923096 
	C308.664490,498.021362 307.277130,497.973846 305.581696,498.488281 
	C309.455719,517.507874 304.321167,536.193970 303.706085,555.045715 
	C303.319763,566.886719 301.939453,578.625244 296.956696,589.613586 
	C296.526642,590.561951 296.549652,591.516479 296.863129,592.526611 
	C302.575531,610.937866 299.632416,629.034302 295.044312,647.131165 
	C292.861420,655.741211 292.475067,664.431885 293.889008,673.358826 
	C294.753479,678.816406 292.903046,684.488770 293.705536,690.188416 
	C294.093201,692.941895 291.427643,694.531372 288.787384,694.974426 
	C286.670837,695.329529 284.474152,695.286743 282.313141,695.285461 
	C238.152191,695.258789 193.991241,695.222351 149.830368,695.139099 
	C147.836426,695.135376 145.404816,695.944092 144.054169,692.997498 
	C145.879700,690.343811 148.727722,691.061768 151.197510,691.060059 
	C185.526413,691.036377 219.855469,691.120422 254.184082,691.027466 
	C257.332642,691.018921 261.035278,692.522156 263.608368,689.464783 
	C269.265656,682.742737 278.516327,678.427429 277.175018,667.096497 
	C276.254272,659.318481 274.975159,651.627197 273.492218,643.970825 
	C269.857239,625.203552 268.145905,606.505310 272.633820,587.574280 
	C275.544403,575.296814 273.361511,563.076233 270.756134,550.985962 
	C264.573822,522.297241 265.864471,493.887787 272.881348,465.451935 
	C275.972076,452.926788 278.963898,440.075836 276.605164,426.997467 
	C274.926086,417.687286 272.245941,408.562378 270.304810,399.293579 
	C267.815125,387.405151 265.588928,385.270935 253.285675,385.367188 
	C243.325562,385.445068 233.968109,382.072601 224.243683,380.885712 
	C222.759598,380.704590 221.215851,380.246735 219.789459,380.475800 
	C203.651154,383.067413 188.385956,378.653168 173.085541,374.693024 
	C166.900421,373.092163 161.110886,372.073334 154.686661,374.726685 
	C150.230438,376.567200 144.906998,376.514801 139.940109,376.850189 
	C135.534119,377.147675 134.472992,374.570984 136.646927,369.020569 
	C132.087967,368.078552 127.549355,367.276337 123.088783,366.161774 
	C120.863281,365.605682 118.219978,364.745178 118.779633,361.645050 
	C119.268646,358.936310 121.806938,358.773285 123.968246,358.786072 
	C136.298523,358.859070 148.653122,358.597992 160.950302,359.305115 
	C171.005386,359.883301 180.910629,358.958221 190.854935,358.172363 
	C199.534637,357.486389 208.167099,356.999115 216.530807,360.066437 
	C218.510956,360.792633 220.435593,360.872467 222.413681,360.461334 
	C228.044006,359.291199 233.717880,359.526611 239.334641,360.245483 
	C244.427689,360.897339 249.325562,360.311462 254.111923,358.787537 
	C262.338989,356.168243 270.628998,354.916382 279.202759,356.708893 
	C282.678955,357.435638 286.158813,357.426086 289.589661,356.453125 
	C293.747467,355.274048 294.029724,351.507935 295.079468,348.219727 
	C295.233826,347.736206 296.088837,347.476349 296.620850,347.112762 
	C289.410187,337.636810 285.560852,327.301392 287.570923,315.121796 
	C289.445496,303.763000 296.487183,296.852203 307.039337,296.712708 
	C317.882080,296.569366 325.258850,303.344299 327.287628,314.887329 
	C328.923676,324.195740 326.902588,332.732361 322.566559,340.880890 
	C320.452148,344.854370 318.647278,348.959900 321.859283,353.001373 
	C325.171082,357.168396 329.783661,358.126373 334.917084,356.991791 
	C343.587982,355.075378 352.114716,355.722534 360.518829,358.523987 
	C364.977478,360.010223 369.470398,360.650055 374.262817,360.154083 
	C380.206635,359.538910 386.230865,359.199036 392.178040,360.578979 
	C393.814087,360.958618 395.435913,360.794342 397.086060,360.234039 
	C405.963409,357.220184 415.081268,357.256897 424.260468,358.277649 
	C439.207611,359.939819 454.189453,359.339203 469.170044,359.005066 
	C476.166870,358.848999 483.167999,358.742981 490.165070,358.816101 
	C493.009338,358.845795 497.011230,358.054016 497.474670,362.104401 
	C497.905945,365.873840 493.998352,365.937805 491.384094,366.612335 
	C487.720062,367.557678 483.991089,368.251404 480.331055,369.043823 
	C481.169281,376.540619 480.523132,377.018250 472.995300,376.471588 
	C466.999878,376.036224 461.100586,375.499573 455.356842,373.452789 
	C452.170441,372.317291 448.772583,373.137848 445.495972,373.890503 
	C435.123596,376.273041 424.884827,380.531708 414.312866,380.460052 
	C396.068481,380.336395 378.327881,384.410217 360.261810,385.240295 
	C351.025909,385.664673 347.857117,388.147736 346.041473,397.080750 
	C344.618042,404.084106 343.056366,411.081238 341.086578,417.946411 
	C338.184113,428.061920 337.454437,438.203339 339.438477,448.535980 
	C340.816711,455.713409 342.204651,462.889038 343.717346,470.464813 
M313.747864,489.255280 
	C315.675751,485.196228 317.410339,481.030243 319.581299,477.105682 
	C322.188782,472.392090 325.618073,468.298889 330.524780,465.755005 
	C332.667145,464.644287 335.018066,463.960052 337.030212,465.900482 
	C339.294525,468.084106 337.653259,470.252808 336.517548,472.220886 
	C333.522461,477.411041 328.607513,480.806213 324.114655,484.418579 
	C316.105835,490.857819 313.488190,499.222961 313.148315,509.017487 
	C312.678436,522.559631 314.737030,535.905457 315.685760,549.335632 
	C316.364502,558.943665 316.622467,568.632019 319.409698,577.957581 
	C321.022675,583.354431 322.263702,588.985718 326.547638,593.126160 
	C327.689941,594.230164 328.803040,596.029297 330.720367,595.080811 
	C332.511566,594.194763 333.744019,592.664490 333.281708,590.234192 
	C330.213593,590.353394 327.459015,590.227661 325.142456,588.126892 
	C320.236359,583.677856 319.684875,572.822021 324.212463,567.914856 
	C327.118958,564.764709 331.999237,564.800964 334.759247,568.098877 
	C335.798492,569.340698 336.567902,570.808289 337.577026,572.351379 
	C339.188904,562.935242 340.831696,553.808105 342.300323,544.653015 
	C344.725464,529.535095 346.287445,514.445190 345.044769,499.003052 
	C343.874054,484.455353 339.465698,470.648560 336.938202,456.429626 
	C334.163757,440.821716 334.090424,425.769958 339.045410,410.662964 
	C342.149811,401.198181 342.336029,391.010681 346.005219,381.533539 
	C342.063416,391.852661 338.409058,402.210876 324.223358,400.658600 
	C314.805023,399.627991 310.518158,396.712708 308.999481,389.592163 
	C307.674500,383.379883 307.139282,377.090027 308.809143,370.785828 
	C310.724792,363.553925 317.296448,362.302612 324.043152,359.921661 
	C318.587799,357.561188 317.622162,353.075623 315.468475,348.849701 
	C310.704010,352.105408 305.726013,352.880402 300.473419,351.934662 
	C299.360840,351.734314 298.391479,351.972076 298.058838,353.114532 
	C297.214905,356.012848 294.703369,357.805511 292.882812,360.320251 
	C294.119476,360.780060 294.884857,361.095551 295.669617,361.351715 
	C305.233948,364.473663 307.231659,367.152161 307.353088,377.230713 
	C307.397247,380.894714 307.444366,384.567139 307.254272,388.223480 
	C306.940826,394.251740 303.647278,398.352722 298.115601,399.940826 
	C286.461273,403.286621 277.884827,399.083588 273.318451,387.805389 
	C271.859985,384.203247 270.621399,380.477936 267.820343,377.565033 
	C269.968689,382.418121 272.293304,387.277985 273.017395,392.489288 
	C274.258698,401.423035 276.655457,410.046967 278.872650,418.740845 
	C280.604065,425.530090 281.966522,432.496643 281.065491,439.484955 
	C279.748505,449.699432 278.483429,459.999451 276.014252,469.970306 
	C270.627930,491.720825 268.946808,513.472839 272.047699,535.762390 
	C273.939301,549.359375 278.293121,562.662415 277.190277,577.698669 
	C277.967926,575.107788 278.334503,573.515076 278.920563,572.007690 
	C280.338928,568.359619 282.531097,565.561096 286.930145,565.730225 
	C291.394196,565.901794 293.195343,568.987366 294.247314,572.736694 
	C295.554504,577.395508 295.431458,581.931885 292.974121,586.268799 
	C290.640900,590.386536 286.362213,589.874451 282.524963,590.363586 
	C284.514008,596.205566 286.751434,596.838562 290.384369,592.625549 
	C294.643372,587.686462 296.617615,581.620117 297.621338,575.324280 
	C300.529999,557.079712 300.637085,538.555176 302.873779,520.245422 
	C304.991180,502.912292 300.095093,488.746643 285.430756,478.467133 
	C282.701935,476.554321 280.611053,473.858246 279.298218,470.706085 
	C278.573730,468.966431 278.094116,467.107361 279.721252,465.620819 
	C281.156006,464.310089 282.804108,464.848175 284.414612,465.467712 
	C288.659637,467.100708 291.499390,470.318665 294.055786,473.877930 
	C297.585266,478.792114 299.748260,484.408020 302.297577,489.828369 
	C303.490540,492.364929 305.282288,494.335266 308.268311,494.532043 
	C311.427582,494.740265 312.370880,492.193054 313.747864,489.255280 
M220.003540,370.009369 
	C219.337646,370.954041 218.819809,372.065704 217.978058,372.812042 
	C215.462494,375.042419 212.518600,375.771149 209.900940,373.312195 
	C207.240982,370.813568 208.675217,368.178864 210.522629,365.778717 
	C211.198105,364.901123 212.554672,364.553192 212.596390,362.955231 
	C207.403183,360.805573 201.827911,360.768829 196.504745,361.508514 
	C176.418442,364.299713 156.265869,362.874146 136.139084,363.020508 
	C133.344467,363.040833 130.547455,362.732849 127.751556,362.576843 
	C131.830200,364.215973 135.916367,364.925507 139.999207,365.653717 
	C141.968262,366.004913 144.215027,366.192566 144.880386,368.469452 
	C145.582062,370.870605 142.493240,370.771057 141.701996,372.453735 
	C143.975540,372.979645 146.056778,372.520782 148.157318,372.149689 
	C156.345947,370.702942 164.057129,367.458130 172.967484,370.566376 
	C188.296646,375.913757 204.280090,378.262787 220.659866,376.862396 
	C223.253754,376.640656 226.017960,377.120972 228.560410,377.806793 
	C240.744034,381.093475 253.290329,381.470551 265.993347,382.729065 
	C265.103210,380.998810 264.156982,379.437256 263.476074,377.767517 
	C262.572723,375.552338 260.460480,372.828247 263.182251,371.015930 
	C266.195923,369.009247 268.471375,371.631256 270.249390,373.853912 
	C273.197327,377.539032 274.768311,381.982361 276.600464,386.263428 
	C280.826508,396.138153 285.130432,398.459717 295.789520,396.650299 
	C299.435394,396.031372 302.029358,394.108063 302.929565,390.541809 
	C304.541168,384.157166 304.160309,377.670044 303.138733,371.242126 
	C302.812256,369.187683 301.318756,367.507996 299.369202,366.846008 
	C288.714111,363.227966 278.155762,358.063934 266.564819,360.164734 
	C253.979919,362.445709 241.614395,365.961609 228.635437,363.503540 
	C227.554520,363.298859 226.342484,363.927002 225.188721,363.940277 
	C221.641403,363.981140 220.053284,365.767883 220.003540,370.009369 
M320.397064,396.507965 
	C333.453918,397.721161 335.926727,396.201324 340.633484,384.109589 
	C341.296936,382.405212 341.983856,380.707489 342.732635,379.039337 
	C343.965912,376.291870 345.344574,373.606232 347.792297,371.720734 
	C349.206818,370.631073 350.748596,369.093079 352.678772,370.340302 
	C354.597137,371.579895 354.005493,373.550964 353.407806,375.319458 
	C352.642181,377.584869 351.797882,379.823700 351.001678,382.034515 
	C364.539551,382.181335 377.312866,380.099396 389.971130,377.451721 
	C396.830536,376.016998 403.537933,378.033264 410.366760,377.270020 
	C422.992584,375.858856 435.129364,372.316620 447.437225,369.523926 
	C451.336578,368.639130 454.875244,368.762482 458.603851,370.350159 
	C463.291321,372.346100 468.346558,372.297699 473.441772,372.167145 
	C471.946259,371.123383 469.974213,370.583649 470.482788,368.462799 
	C470.933685,366.582367 472.917267,366.270050 474.493958,365.941925 
	C478.553650,365.097015 482.655853,364.456238 486.741058,363.733887 
	C485.638550,363.071136 484.647064,363.073364 483.655548,363.070831 
	C461.367310,363.013672 439.056610,364.243927 416.819183,361.465851 
	C411.836884,360.843445 406.726471,361.147705 401.590851,363.394775 
	C402.660706,364.791382 403.528687,365.780487 404.233032,366.874908 
	C405.571869,368.955048 406.309448,371.228546 404.443542,373.308563 
	C402.405060,375.580933 399.887421,374.905060 397.557861,373.749115 
	C395.507233,372.731537 393.945404,370.931366 393.903351,368.701782 
	C393.827972,364.704437 391.464722,364.072784 388.318176,364.119537 
	C376.033722,364.302124 363.697845,364.991699 351.907837,360.354156 
	C351.464050,360.179565 350.909088,360.312805 350.421600,360.220184 
	C340.286438,358.294708 331.183075,362.808289 321.719513,364.924103 
	C314.153473,366.615723 312.128021,369.425354 311.998718,377.150665 
	C311.948608,380.143433 312.106934,383.142517 312.248108,386.135040 
	C312.482635,391.107269 314.658203,394.706390 320.397064,396.507965 
M295.682617,605.921875 
	C295.065216,602.607300 295.277649,599.057983 293.100647,595.885559 
	C288.965820,598.585144 284.943878,601.036743 281.008575,596.254883 
	C277.959869,592.550293 277.604004,588.003174 277.459625,583.419495 
	C275.136780,595.707031 272.594910,607.803467 273.957947,620.506104 
	C275.308807,633.095032 277.497467,645.503174 279.922882,657.877991 
	C282.391937,670.475586 281.144531,681.465088 269.091583,688.850037 
	C268.527161,689.195862 268.182495,689.803101 268.683258,691.061218 
	C274.651733,692.126282 280.916321,691.806763 287.169159,691.324890 
	C288.574310,691.216614 289.975067,690.121887 289.607330,688.666870 
	C288.262604,683.346069 290.947327,678.085266 289.878876,672.939941 
	C288.349884,665.576965 288.948273,658.417786 290.362213,651.189087 
	C293.227722,636.539124 297.667999,622.075256 295.682617,605.921875 
M321.319000,631.315308 
	C326.559570,649.556152 327.625275,668.167175 326.247314,686.993225 
	C326.119324,688.741821 326.149323,690.807495 328.151764,691.082031 
	C334.456268,691.946289 340.801544,692.294800 347.120026,690.661865 
	C346.663574,688.314392 345.103516,687.759338 343.981018,686.883911 
	C336.390961,680.964294 333.788361,673.008911 335.091431,663.834351 
	C336.913208,651.007874 339.512573,638.287598 341.167969,625.443054 
	C342.912262,611.908569 342.173920,598.402527 338.596283,584.208435 
	C337.025543,598.428711 333.657013,600.760376 322.326080,595.901184 
	C319.090576,607.395569 319.106110,618.876099 321.319000,631.315308 
M317.399414,341.919006 
	C322.536621,334.302094 324.535919,325.939880 323.685608,316.786163 
	C322.849304,307.782715 317.222168,301.404816 308.942352,300.449158 
	C301.310181,299.568207 293.876312,304.667145 291.941437,312.862030 
	C289.444611,323.436768 291.148163,333.481110 298.030518,342.109772 
	C303.840271,349.393677 310.888672,349.372101 317.399414,341.919006 
M332.403107,571.232117 
	C330.358612,568.820618 327.983307,568.335510 326.445923,571.350464 
	C324.324127,575.511353 324.445190,580.003235 326.513550,584.249451 
	C327.371185,586.010132 328.972870,586.957581 331.054413,586.470276 
	C333.164917,585.976135 334.628632,584.886230 334.748291,582.453918 
	C334.930084,578.759399 334.750458,575.158813 332.403107,571.232117 
M290.994720,577.500610 
	C290.628601,574.328491 291.349823,569.951111 286.990387,569.596680 
	C282.205933,569.207642 282.300720,573.922180 281.644562,577.138184 
	C280.522095,582.639832 282.047974,586.457397 285.317413,586.484924 
	C290.844025,586.531433 290.585541,582.126587 290.994720,577.500610 
M330.885681,473.502045 
	C331.842712,472.229492 333.238678,471.191376 333.158875,468.876831 
	C327.975983,471.040436 325.353485,475.187134 323.280609,479.941742 
	C325.658722,477.958008 328.036835,475.974274 330.885681,473.502045 
M288.243103,472.369019 
	C286.977020,471.260376 285.840698,469.873901 283.507538,469.956085 
	C285.392487,474.925385 289.499054,476.915314 293.263000,479.299835 
	C291.739441,477.160706 290.215851,475.021545 288.243103,472.369019 
z"/>
<path fill="#000000" opacity="1.000000" stroke="none" 
	d="
M591.000000,691.014648 
	C614.998047,691.038696 638.496216,691.027039 661.993958,691.124451 
	C665.493774,691.138977 667.564758,689.246155 670.395996,687.469910 
	C686.351868,677.459778 681.744690,663.287476 679.138306,649.474976 
	C676.359436,634.748291 673.672180,620.064880 674.617065,604.946472 
	C675.075867,597.606201 676.544861,590.440613 677.884888,583.278137 
	C679.975342,572.104431 677.675598,561.305847 675.384583,550.659973 
	C669.209473,521.965454 669.925537,493.563965 676.999023,465.173035 
	C679.087830,456.789246 680.536255,448.255707 681.457825,439.650360 
	C682.344727,431.368866 680.414551,423.414307 678.347778,415.533997 
	C676.364502,407.972076 673.812561,400.559631 671.811157,393.001862 
	C670.503357,388.063477 667.344727,385.293884 662.565918,385.475983 
	C651.069092,385.914154 640.159058,382.728546 629.031189,380.852173 
	C627.236938,380.549652 625.334473,380.165497 623.582947,380.446838 
	C609.169434,382.762115 595.480286,379.065430 581.748474,375.633118 
	C579.326904,375.027863 576.878662,374.514893 574.486145,373.811462 
	C569.900635,372.463287 565.603271,372.288605 560.969849,374.382416 
	C555.605164,376.806671 549.528931,376.364990 543.744751,376.752869 
	C539.781128,377.018646 538.806580,374.498993 540.404541,369.122833 
	C536.024292,368.201599 531.636597,367.375977 527.302612,366.327759 
	C525.009949,365.773285 522.474304,364.860657 522.873230,361.857208 
	C523.283508,358.768402 526.087402,358.800812 528.375305,358.824799 
	C540.203186,358.948761 552.039124,358.973053 563.854248,359.464844 
	C574.383057,359.903076 584.817383,359.048035 595.270874,358.191559 
	C604.429382,357.441223 613.575745,356.786865 622.313782,360.653015 
	C622.769226,360.854492 623.323486,361.256561 623.704041,361.141785 
	C634.633423,357.844055 646.034668,362.367798 656.903748,359.236908 
	C664.142639,357.151672 671.311523,355.082123 678.942749,355.728210 
	C681.591919,355.952515 684.221497,356.506531 686.871521,356.606964 
	C698.355408,357.042236 703.012573,350.086060 697.691345,339.875854 
	C693.530457,331.891937 691.500671,323.720642 693.189453,314.846375 
	C695.459412,302.917908 703.307617,296.216675 714.063843,296.763977 
	C724.901550,297.315369 732.288818,305.255951 733.278137,317.341003 
	C733.962830,325.705505 732.768738,333.635956 728.034790,340.768677 
	C725.613159,344.417419 725.137573,348.487823 727.206970,352.109894 
	C729.390198,355.931122 733.828430,356.972321 737.783630,356.389008 
	C749.115723,354.717773 760.011047,355.996033 770.723083,359.749878 
	C773.804993,360.829895 776.926147,360.517120 780.107727,360.188629 
	C785.915710,359.588989 791.745117,359.352905 797.507324,360.752350 
	C798.783752,361.062347 800.019165,361.456329 801.397461,360.866028 
	C811.612366,356.491119 822.240540,357.552826 832.899353,358.390320 
	C847.704834,359.553619 862.544434,358.990143 877.372681,358.840759 
	C883.704834,358.777008 890.037415,358.728058 896.369873,358.711212 
	C898.836060,358.704620 901.376831,359.179230 901.754578,362.037537 
	C902.148926,365.021332 899.511719,365.724640 897.275391,366.483215 
	C893.049316,367.916687 888.364563,367.478149 884.291992,369.471008 
	C885.406372,376.383148 884.490234,377.130096 877.291016,376.509308 
	C871.469421,376.007355 865.722351,375.472168 860.130249,373.532837 
	C856.925537,372.421509 853.567871,373.175720 850.281311,373.972198 
	C840.101501,376.439117 830.026062,379.411621 819.591370,380.694305 
	C816.791443,381.038544 813.881226,381.563934 811.145447,381.162445 
	C800.345642,379.577667 789.968323,381.668854 779.574097,384.102661 
	C774.187805,385.363831 768.679810,385.333954 763.171753,385.338165 
	C756.724243,385.343109 754.464783,387.175964 752.828979,393.199707 
	C750.082092,403.314819 747.167908,413.387726 744.616943,423.551910 
	C741.870544,434.494873 743.910767,445.332001 745.642822,456.216125 
	C747.445984,467.547272 750.878723,478.500244 752.548401,489.881561 
	C755.220825,508.098663 753.836243,526.058350 750.892822,544.024902 
	C749.521423,552.396423 747.758728,560.707764 746.544067,569.100037 
	C745.180908,578.518066 748.069214,587.594910 749.411011,596.785767 
	C751.479004,610.950806 750.417969,624.989624 747.879883,638.986267 
	C746.367676,647.325928 744.675293,655.644897 743.537292,664.037354 
	C742.352783,672.773010 745.987488,678.990356 752.492065,685.376221 
	C758.805298,691.574036 765.268127,691.007568 772.351501,691.014587 
	C803.848877,691.045654 835.346497,690.971680 866.843384,691.086914 
	C869.528015,691.096741 874.408752,689.589783 874.336487,693.302246 
	C874.268433,696.799866 869.392944,695.177429 866.711487,695.185425 
	C823.882080,695.313660 781.052185,695.290039 738.222412,695.289490 
	C736.392090,695.289490 734.531677,695.367188 732.737488,695.080994 
	C728.345886,694.380371 726.575256,691.711792 726.839966,687.349182 
	C727.844238,670.795227 728.383545,654.307617 723.382507,638.112305 
	C718.650635,622.788879 718.555908,607.304016 723.262695,591.882507 
	C723.709595,590.418213 724.115173,588.830261 723.329529,587.495544 
	C718.963135,580.077942 717.755188,571.807922 717.301941,563.507996 
	C716.421875,547.393066 713.550232,531.433350 713.677734,515.250366 
	C713.693481,513.257812 713.239685,511.018921 714.463318,509.390991 
	C717.463379,505.399872 715.618469,502.740234 712.346008,500.179596 
	C709.332703,502.748596 707.996582,505.395630 710.222473,509.460754 
	C712.109314,512.906677 711.523621,517.036621 711.089661,520.788513 
	C709.006348,538.802368 708.918030,556.991882 706.243774,574.942627 
	C705.806274,577.879395 705.401001,581.156982 703.835388,583.517212 
	C700.886475,587.962769 701.478333,592.090576 702.793274,596.775696 
	C707.078613,612.045227 704.632263,627.122742 700.975525,642.126953 
	C698.452393,652.479980 696.076843,662.771545 698.181763,673.649902 
	C699.138794,678.595581 697.409729,683.786255 698.183960,688.970947 
	C698.739624,692.692078 696.142273,694.762390 692.490601,695.179077 
	C690.842407,695.367188 689.162476,695.310303 687.496948,695.308838 
	C643.667297,695.270020 599.837646,695.231689 556.008057,695.155945 
	C553.839050,695.152222 551.316772,695.827698 549.766724,693.093567 
	C551.152832,690.548096 553.498474,691.053833 555.506714,691.043701 
	C567.170959,690.984985 578.835510,691.014587 591.000000,691.014648 
M620.461060,376.811493 
	C624.465393,376.601837 628.429077,376.720337 632.386230,377.571899 
	C642.794861,379.811707 653.205872,381.819183 663.961487,381.879517 
	C669.898804,381.912781 673.678955,385.632263 675.305969,391.440430 
	C677.100403,397.846130 679.096863,404.195587 680.862000,410.609009 
	C683.648926,420.734619 686.378601,430.949554 685.014221,441.563812 
	C683.934387,449.964691 682.628662,458.392303 680.602478,466.605621 
	C673.789734,494.222321 673.285156,521.820374 679.080139,549.686401 
	C681.854431,563.027100 684.001648,576.495972 680.560425,590.232483 
	C679.076965,596.153809 678.406494,602.306824 678.163696,608.506958 
	C677.551025,624.150818 681.055359,639.241943 683.909424,654.406372 
	C686.463623,667.977417 687.205322,680.761230 673.608276,689.485596 
	C673.426575,689.602234 673.485840,690.094482 673.339844,690.963257 
	C679.568787,692.215027 685.815552,691.784973 692.036987,691.329956 
	C693.395935,691.230591 694.794128,689.937073 694.415833,688.567078 
	C693.030396,683.549744 695.383240,678.520447 694.494568,673.738281 
	C692.446167,662.715637 694.577393,652.170349 697.151733,641.679138 
	C701.011292,625.950378 702.854858,610.279724 698.282532,594.374207 
	C697.548767,591.821899 696.802856,590.410889 693.586670,590.811096 
	C690.139221,591.240234 687.096558,589.646423 685.112305,586.542114 
	C682.785522,582.901855 683.304688,577.663635 686.202332,575.618958 
	C689.037659,573.618225 693.402344,574.837952 696.306519,578.322144 
	C697.447632,579.691162 697.850342,581.651672 699.713318,582.601135 
	C701.866699,580.192139 702.078735,577.136597 702.626160,574.253418 
	C704.743652,563.101135 704.313110,551.717346 705.597229,540.479919 
	C706.540344,532.227173 707.251465,523.929749 707.598450,515.632690 
	C707.888062,508.706848 706.287109,507.638580 699.689453,509.318420 
	C695.577026,510.365479 691.502075,511.044586 687.562134,508.794312 
	C686.196167,508.014160 685.118469,506.879059 685.430603,505.173737 
	C685.754944,503.402252 687.248230,502.805969 688.810913,502.792450 
	C691.968750,502.765076 695.162781,502.658112 698.280212,503.061188 
	C705.846008,504.039429 710.252686,499.862457 709.459473,492.209076 
	C709.289368,490.568085 709.010254,488.886261 709.203796,487.273987 
	C709.405884,485.590607 710.207825,483.944580 712.311157,483.981781 
	C714.230286,484.015778 715.271729,485.327850 715.799438,487.049194 
	C716.360046,488.878021 715.804443,490.663116 715.561462,492.477722 
	C714.573914,499.850769 719.123657,504.231110 726.321167,503.147339 
	C729.100891,502.728760 731.960388,502.731781 734.782837,502.740997 
	C736.822815,502.747650 739.026306,503.084808 739.277344,505.681152 
	C739.521667,508.208008 737.436584,508.960297 735.523254,509.673004 
	C731.854309,511.039551 728.285583,510.016663 724.729187,509.156555 
	C719.160828,507.809845 717.635803,508.961334 717.276367,514.803101 
	C716.936646,520.323181 717.792969,525.760986 718.270691,531.230042 
	C719.370239,543.817383 720.150330,556.437866 721.537598,568.992126 
	C722.046631,573.598816 722.234009,578.568604 725.483521,582.839722 
	C726.791016,580.922791 727.757568,579.168518 729.042297,577.690735 
	C731.939453,574.358337 736.392212,573.815308 739.268555,576.266357 
	C742.258118,578.813843 742.565979,583.076599 740.052612,586.610413 
	C738.065308,589.404602 735.267273,591.237549 731.979187,590.664124 
	C727.806396,589.936218 726.856689,592.018311 726.083496,595.314758 
	C723.147705,607.832031 722.384094,620.473938 725.973145,632.835388 
	C731.189758,650.802429 731.981689,668.998779 730.593628,687.443115 
	C730.440369,689.479858 731.326233,690.969421 733.084045,691.177795 
	C739.419373,691.928833 745.779236,692.201660 752.170654,690.627747 
	C751.858337,689.647888 751.847412,689.259033 751.647522,689.058105 
	C751.184326,688.592468 750.658813,688.173096 750.107727,687.812683 
	C741.019653,681.870361 738.592773,673.066345 739.930603,662.985229 
	C741.066284,654.426819 742.784729,645.945435 744.259155,637.432373 
	C746.509216,624.440430 748.587402,611.285950 745.638672,598.287781 
	C741.400024,579.603821 743.602600,561.482605 747.159302,542.998230 
	C751.859009,518.573730 751.322327,494.010529 744.746582,469.805847 
	C742.500610,461.539185 738.072693,457.918304 729.447266,457.384369 
	C727.126709,457.240753 724.784363,457.386230 722.454529,457.468811 
	C714.219910,457.760620 710.820923,454.968964 710.782532,446.883575 
	C710.659973,421.058411 710.561584,395.229340 710.905762,369.407776 
	C711.032471,359.899597 714.679443,351.782349 721.158142,344.164062 
	C729.211243,334.694489 732.470703,323.111511 727.790405,310.562469 
	C725.433655,304.243439 720.540527,301.150177 714.119873,300.469879 
	C707.988525,299.820282 701.771301,303.476868 699.096069,309.218994 
	C695.211487,317.556946 695.330383,325.954895 699.271667,334.291351 
	C700.408264,336.695343 701.697937,339.061798 702.514099,341.576355 
	C706.016479,352.367157 700.801086,359.829834 689.532043,360.336060 
	C688.534302,360.380890 687.497742,360.523071 686.539001,360.327301 
	C676.078308,358.191589 666.086609,360.242096 656.116150,363.335632 
	C648.617859,365.662170 640.871765,363.633148 633.243896,363.948792 
	C629.367432,364.109192 625.941589,364.337219 625.472473,369.423401 
	C625.351379,370.735565 624.195374,372.177307 623.131042,373.131561 
	C620.768860,375.249603 617.946716,375.707458 615.454224,373.479004 
	C612.969238,371.257294 613.860962,368.735077 615.474976,366.291626 
	C616.141113,365.283234 617.988159,365.027069 617.481445,362.088287 
	C588.592224,361.425629 559.701721,365.287354 530.793274,362.874481 
	C535.288208,364.141998 539.832092,364.774384 544.344360,365.583374 
	C546.293213,365.932770 548.409607,366.419281 548.992493,368.762268 
	C549.581421,371.130157 546.559448,370.856354 545.434814,373.113892 
	C550.537598,372.303375 555.252136,372.363159 559.273926,370.723541 
	C565.107910,368.345062 570.479614,368.748505 576.280396,370.309235 
	C590.415833,374.112488 604.540833,378.222778 620.461060,376.811493 
M797.739258,365.085876 
	C793.586853,363.388275 789.220337,363.751678 784.946106,364.055908 
	C777.390381,364.593781 770.113464,364.084991 762.838379,361.530060 
	C756.885132,359.439301 750.557312,358.747345 744.137451,359.768127 
	C734.930725,361.232025 726.480469,360.381104 721.276917,350.696930 
	C716.191162,356.176697 714.610229,362.794617 714.517639,369.306458 
	C714.148132,395.278503 714.326599,421.258698 714.364807,447.235809 
	C714.371277,451.654694 716.634033,454.120697 721.230408,453.834412 
	C728.086243,453.407349 734.795410,453.918732 741.263000,456.918610 
	C741.442566,456.046661 741.659363,455.564819 741.612244,455.110321 
	C741.492920,453.958984 741.266541,452.817871 741.062927,451.676239 
	C739.415588,442.442139 738.577454,433.122467 740.743103,423.927917 
	C743.446777,412.449707 746.609863,401.075745 749.765930,389.709869 
	C751.247864,384.372864 755.357422,382.095093 760.631653,381.708435 
	C764.444458,381.428894 768.304077,381.540649 772.076660,381.008606 
	C781.121704,379.733063 790.185486,376.703705 799.137268,377.053680 
	C816.756531,377.742493 833.562988,374.657623 850.276611,369.933075 
	C855.065613,368.579346 859.641479,368.541748 864.377808,370.619171 
	C868.650879,372.493469 873.456604,372.002899 878.334351,372.829315 
	C877.358154,370.798492 874.171021,371.192169 874.739319,368.747772 
	C875.283508,366.406708 877.703979,366.316071 879.554260,365.822449 
	C881.635071,365.267395 883.808655,365.067261 885.934387,364.672058 
	C887.819031,364.321686 889.693359,363.915588 891.572205,363.534119 
	C869.213196,362.933289 847.092651,364.257935 825.016052,361.504608 
	C819.044983,360.759918 812.862366,360.790466 806.648193,363.315460 
	C807.529297,364.409973 808.147217,365.158844 808.744873,365.923553 
	C810.571167,368.260132 811.326904,370.936432 809.028381,373.117218 
	C806.496277,375.519714 803.526245,374.883209 800.845703,372.876984 
	C798.387085,371.036926 798.611328,368.222412 797.739258,365.085876 
M687.714172,583.706787 
	C689.501221,586.703857 691.907959,587.729309 695.441406,586.119934 
	C694.983887,582.377808 694.049316,578.883240 689.798584,578.541504 
	C687.009705,578.317261 687.205994,580.940125 687.714172,583.706787 
M731.769043,586.828735 
	C732.581848,586.729309 733.462219,586.797119 734.195557,586.500854 
	C737.050232,585.347473 738.417908,583.113586 737.383423,580.206848 
	C736.638550,578.113708 734.381714,577.697754 732.967773,579.291382 
	C731.204163,581.278992 727.574707,583.232056 731.769043,586.828735 
z"/>
<path fill="#000000" opacity="1.000000" stroke="none" 
	d="
M693.495361,746.647095 
	C689.368103,749.371704 685.149719,748.140259 681.087830,748.232300 
	C679.768799,748.262207 678.863586,747.408203 678.841858,746.074585 
	C678.763855,741.282471 678.764954,736.488770 678.778015,731.695801 
	C678.780945,730.635010 679.255615,729.686218 680.361389,729.454834 
	C684.300598,728.630676 688.251282,728.265381 691.852905,730.583435 
	C692.626587,731.081482 693.603271,732.155334 693.549927,732.896545 
	C693.288147,736.530579 694.390137,739.875427 695.195435,743.309875 
	C695.464172,744.456299 694.645142,745.510193 693.495361,746.647095 
M683.018921,742.055603 
	C684.496033,745.603882 687.054443,745.801086 690.499146,742.452576 
	C688.318481,740.208374 686.025085,739.492004 683.018921,742.055603 
M689.173889,735.330994 
	C688.584534,732.176392 686.249023,733.426392 684.482361,733.594055 
	C683.590576,733.678711 683.107788,734.704468 683.581726,735.512695 
	C684.665283,737.360413 686.445923,736.614136 688.026855,736.416626 
	C688.317627,736.380249 688.575195,736.078796 689.173889,735.330994 
z"/>
<path fill="#000000" opacity="1.000000" stroke="none" 
	d="
M292.788757,742.616272 
	C293.461060,744.635620 295.356873,745.632446 295.478821,747.813904 
	C292.605408,749.423401 290.976440,747.918213 289.487732,745.631897 
	C288.508942,744.128662 287.537231,742.316711 285.376007,742.451782 
	C282.896729,742.606628 283.551514,744.775940 283.241638,746.277161 
	C283.015656,747.371765 282.479797,748.107788 281.276825,748.085266 
	C280.064178,748.062561 279.444000,747.233032 279.352203,746.189941 
	C278.915680,741.230408 278.781128,736.261169 279.316315,731.298767 
	C279.365265,730.844910 279.666473,730.355713 279.984436,730.003845 
	C281.618317,728.195740 290.364441,728.392822 292.813049,730.502930 
	C295.873016,733.139832 296.545197,736.277405 293.890778,739.690186 
	C293.283142,740.471436 292.557068,741.190979 292.788757,742.616272 
M288.016113,733.325989 
	C286.328400,733.411194 284.234924,732.583252 283.518250,735.023438 
	C283.165009,736.226257 283.587433,737.395264 284.941742,737.704102 
	C286.702240,738.105652 288.665710,738.363342 289.967987,736.833923 
	C291.256134,735.321167 290.374023,734.150391 288.016113,733.325989 
z"/>
<path fill="#000000" opacity="1.000000" stroke="none" 
	d="
M325.276581,740.254761 
	C324.515778,743.069946 326.815979,747.692932 323.171021,747.702881 
	C319.071960,747.714050 321.174042,743.033813 320.802002,740.408325 
	C320.455627,737.963684 320.703491,735.429260 320.755768,732.935791 
	C320.786865,731.452271 320.688354,729.757935 322.504181,729.192993 
	C324.229187,728.656311 325.241302,729.993408 326.299164,731.043518 
	C328.637421,733.364624 329.667847,736.798279 332.919830,738.810791 
	C334.188904,736.759766 333.489746,734.596985 333.686554,732.589233 
	C333.830322,731.122009 333.612671,729.260681 335.746307,729.282043 
	C337.738739,729.302002 337.941223,731.122864 337.970673,732.589600 
	C338.054169,736.744507 337.994751,740.902832 337.947968,745.059326 
	C337.934998,746.214294 337.957733,747.539368 336.709442,748.108582 
	C335.267181,748.766235 334.146301,747.967163 333.259460,746.866333 
	C331.278259,744.407104 329.346527,741.907654 327.350800,739.460449 
	C326.453094,738.359619 325.524292,737.682129 325.276581,740.254761 
z"/>
<path fill="#000000" opacity="1.000000" stroke="none" 
	d="
M297.654297,737.258728 
	C299.862793,730.305115 305.250854,727.224426 311.013184,729.214050 
	C316.449463,731.091125 319.263000,737.280518 317.112915,742.632507 
	C315.389435,746.922607 310.896240,749.406799 306.209717,748.660706 
	C300.624176,747.771484 297.991150,744.402405 297.654297,737.258728 
M308.206940,732.782776 
	C304.089447,732.777283 302.220367,735.066895 302.121582,738.950989 
	C302.050140,741.759827 303.531677,743.767456 306.183289,744.464905 
	C309.316803,745.289185 311.837189,743.908813 313.018738,740.995911 
	C314.663696,736.940613 312.644775,734.416077 308.206940,732.782776 
z"/>
<path fill="#000000" opacity="1.000000" stroke="none" 
	d="
M710.610168,734.457764 
	C712.474304,739.030701 715.042908,742.943970 715.875244,747.786072 
	C711.465515,749.054688 710.379761,743.783020 706.157471,743.896606 
	C702.063477,744.006775 701.118469,748.916687 697.255249,748.082031 
	C695.731567,745.549805 697.715881,743.887573 698.460693,742.017029 
	C699.505554,739.392700 700.637329,736.796143 701.875732,734.257935 
	C702.852966,732.254883 702.985840,729.240967 705.840149,729.018372 
	C709.150879,728.760132 709.219421,732.110840 710.610168,734.457764 
z"/>
<path fill="#000000" opacity="1.000000" stroke="none" 
	d="
M748.822266,747.220093 
	C747.085815,745.240173 746.312927,742.876892 744.055054,741.761597 
	C741.816711,742.344299 741.524597,744.156555 741.301208,745.989319 
	C741.153687,747.199585 740.977478,748.407410 739.393433,748.371582 
	C737.992615,748.340027 737.214417,747.326965 737.183289,746.104492 
	C737.061035,741.298584 737.045227,736.488464 737.088501,731.680786 
	C737.099976,730.398804 737.876526,729.434326 739.277161,729.457764 
	C740.749329,729.482422 741.093445,730.585205 741.265259,731.840393 
	C741.438232,733.104370 740.897034,734.503479 742.070129,735.818176 
	C746.066833,734.673096 747.144226,728.150269 752.937378,729.559082 
	C752.359192,733.434937 746.656494,734.789001 748.054138,738.751831 
	C749.165222,741.901672 751.848877,744.496887 753.852234,747.363953 
	C752.126892,749.492004 750.587036,748.647888 748.822266,747.220093 
z"/>
<path fill="#000000" opacity="1.000000" stroke="none" 
	d="
M266.201538,745.681641 
	C266.027863,747.689941 265.200989,748.555725 263.542969,748.225952 
	C262.396088,747.997803 261.983551,747.026367 261.951019,745.972534 
	C261.879242,743.645203 261.870270,741.315613 261.864075,738.986816 
	C261.836029,728.434143 263.375610,727.158386 273.990875,728.810852 
	C275.392273,729.029053 276.759003,729.288452 276.789276,730.998047 
	C276.820679,732.772278 275.423706,733.064453 274.016724,733.118713 
	C272.354340,733.182861 270.687622,733.150146 269.027039,733.238770 
	C267.824829,733.302856 266.546051,733.536682 266.624451,735.120483 
	C266.701263,736.672302 268.041168,736.639954 269.189850,736.891541 
	C271.522614,737.402344 275.660095,735.534485 275.627747,739.276855 
	C275.599854,742.508728 271.609772,741.021240 269.377136,741.217712 
	C266.560425,741.465637 266.204803,743.105469 266.201538,745.681641 
z"/>
<path fill="#000000" opacity="1.000000" stroke="none" 
	d="
M730.489197,743.690430 
	C732.218933,742.925476 733.497314,742.989746 734.113220,744.565491 
	C734.656006,745.954529 733.531494,746.632080 732.571533,747.312073 
	C728.545654,750.163940 722.962585,749.375305 719.542786,745.462341 
	C715.943054,741.343506 715.939636,735.833313 719.534424,731.921082 
	C722.812744,728.353333 729.039246,727.679993 732.723572,730.475891 
	C733.675659,731.198486 734.712097,731.900452 733.972595,733.288330 
	C733.325439,734.502869 732.214600,734.683289 730.978638,734.261169 
	C730.667236,734.154785 730.377625,733.985413 730.075745,733.850098 
	C726.972595,732.459106 724.202393,732.758301 722.202332,735.718201 
	C720.774231,737.831543 720.832581,740.165344 722.249695,742.257751 
	C724.311707,745.302612 727.135681,745.232117 730.489197,743.690430 
z"/>
<path fill="#000000" opacity="1.000000" stroke="none" 
	d="
M341.256226,729.534058 
	C345.513123,728.373596 349.507996,728.865906 353.484253,728.889709 
	C354.695892,728.896973 355.837891,729.234802 356.020020,730.725037 
	C356.160980,731.878601 355.583038,732.895447 354.514618,732.941284 
	C349.569702,733.153320 350.387665,736.713745 350.352417,739.811768 
	C350.329681,741.808167 350.349854,743.805969 350.282166,745.800781 
	C350.241089,747.010376 350.012695,748.194763 348.415131,748.223022 
	C346.936523,748.249084 346.341644,747.233582 346.220551,745.999390 
	C346.042358,744.183044 346.019501,742.349548 345.976196,740.522278 
	C345.896637,737.162537 347.003082,733.275635 341.650208,732.665405 
	C340.381592,732.520752 340.225891,731.006165 341.256226,729.534058 
z"/>
</svg>